<svg id="Layer_1" data-name="Layer 1" xmlns="http://www.w3.org/2000/svg" viewBox="0 0 478.7 51.47"><defs><style>.cls-1{fill:#fff;}</style></defs><path class="cls-1" d="M119.93,25.8V50.21H107.62V.59c0-.43.21-.79,1-.14L139.37,25.8V1.24h12.32V50.93c0,.57-.22.79-1,.14Z"/><path class="cls-1" d="M2.88.74C3,.23,3.24.31,3.53.67L27,27,50.12.67c.28-.36.57-.44.64.07l2.88,49.47H40.76L39.6,29.32,27.36,43.51a.4.4,0,0,1-.65,0L14,29.25l-1.15,21H0Z"/><path class="cls-1" d="M69,50.21H56.13L80,.38c.22-.51.65-.51.87,0l23.76,49.83H91.05l-2.82-6.34H71.68ZM79.82,24.86l-4,9.22H83.9Z"/><path class="cls-1" d="M211.52,25.72c0-14.76,12.17-25,26.29-25s26.28,10.29,26.28,25-12.17,25.13-26.28,25.13S211.52,40.49,211.52,25.72Zm39.18,0C250.7,18,246,12,237.81,12s-12.89,6-12.89,13.68,4.68,13.76,12.89,13.76S250.7,33.43,250.7,25.72Z"/><path class="cls-1" d="M273.49.23h.44l19.37,30,19.37-30h.43l5.4,50H311l-3.17-30.32L293.3,42.72H293L278.39,19.89l-3.17,30.32h-7.13Z"/><path class="cls-1" d="M331.09,50.21h-7.78l21.46-50h.43l21.53,50h-8.14l-4.76-11.6H335.91Zm13.82-33-6.14,14.61H351C351.05,31.77,344.91,17.16,344.91,17.16Z"/><path class="cls-1" d="M379.46,50.21h-7.7v-49h12.53c13.46,0,20.88,7.42,20.88,18.72s-7.49,18.65-20.88,18.65h-4.83ZM384,31.77c9.43,0,13.25-4.46,13.25-11.81S393.36,8.08,384,8.08h-4.54V31.77Z"/><path class="cls-1" d="M411.8,1.24h7.7V43.37h21.6v6.84H411.8Z"/><path class="cls-1" d="M446.51,1.24H478.7V8.08H454.22V24.93H475v6.84H454.22v11.6H478.7v6.84H446.51Z"/><path class="cls-1" d="M183.46,24.86v9.22H194a12.08,12.08,0,0,1-10.58,5.4c-8.21,0-12.89-6-12.89-13.76S175.25,12,183.46,12a12.06,12.06,0,0,1,10.6,5.4l0,0,9.87-7.62A26.83,26.83,0,0,0,183.46.67c-14.12,0-26.28,10.29-26.28,25s12.16,25.13,26.28,25.13a26.45,26.45,0,0,0,22.65-12.14V24.86Z"/></svg>